<svg xmlns="http://www.w3.org/2000/svg" xmlns:xlink="http://www.w3.org/1999/xlink" version="1.1" xml:space="preserve" width="33" height="27"><rect id="backgroundrect" width="100%" height="100%" x="0" y="0" fill="none" stroke="none"/>
<style type="text/css">
	.st0{clip-path:url(#SVGID_2_);}
	.st1{clip-path:url(#SVGID_4_);}
</style>


<g class="currentLayer"><title>Layer 1</title><g class="" fill="#cccccc" fill-opacity="1"><g id="svg_1" class="" fill="#cccccc" fill-opacity="1">
	<defs transform="translate(0.11428571492433548,0) translate(0,0.11428571492433548) translate(0.11428571492433548,-0.800000011920929) translate(0,1) scale(0.17613184452056885) translate(0,-1) translate(0.6488645672798157,1.1355129480361938) scale(1.0689884424209595) translate(-0.6488645672798157,-1.1355129480361938) translate(1.21397864818573,1.6692205667495728) scale(0.4920033812522888) translate(-1.21397864818573,-1.6692205667495728) translate(2.467419385910034,3.3927013874053955) scale(1.0101289749145508) translate(-2.467419385910034,-3.3927013874053955) ">
		<rect id="SVGID_1_" y="1" width="347.79998779296875" height="281.8999938964844" fill="#cccccc" fill-opacity="1"/>
	</defs>
	<clipPath id="SVGID_2_" transform="translate(0.11428571492433548,0) translate(0,0.11428571492433548) translate(0.11428571492433548,-0.800000011920929) translate(0,1) scale(0.17613184452056885) translate(0,-1) translate(0.6488645672798157,1.1355129480361938) scale(1.0689884424209595) translate(-0.6488645672798157,-1.1355129480361938) translate(1.21397864818573,1.6692205667495728) scale(0.4920033812522888) translate(-1.21397864818573,-1.6692205667495728) translate(2.467419385910034,3.3927013874053955) scale(1.0101289749145508) translate(-2.467419385910034,-3.3927013874053955) ">
		<use xlink:href="#SVGID_1_" style="overflow:visible;" id="svg_2"/>
	</clipPath>
	<path class="st0" d="M32.77365468295784,9.390976543279788 h-7.149063716324153 c0.037429652965047966,-1.1416044154339615 1.5065435318431788,-1.6843343834271567 1.5065435318431788,-1.6843343834271567 V4.777771815337632 C19.14926100368039,4.337973392998318 16.501113056403256,0.3142856992556669 16.501113056403256,0.3142856992556669 h0 c0,0 -2.648147947277141,4.023687693742652 -10.630021442073609,4.463486116081965 V7.706642159852631 c0,0 1.469113878878131,0.5427299679931947 1.5065435318431788,1.6843343834271567 H0.22857142984867101 v8.477816396583355 h7.130348889841629 c-0.4023687693742655,1.4597564656368691 -2.432927442728115,1.834052995287348 -2.432927442728115,1.834052995287348 c5.820311036064952,6.035531540613977 11.58447759268233,6.999345104463962 11.58447759268233,6.999345104463962 h0 c0,0 5.764166556617381,-0.9638135638499843 11.58447759268233,-6.999345104463962 c0,0 -2.03055867335385,-0.37429652965047955 -2.432927442728115,-1.834052995287348 h7.130348889841629 V9.390976543279788 M7.957794767131068,6.462106198764788 c0,0 4.145334065879059,0.21522050454902572 8.543318289272186,-3.0598741298926675 h0 c4.397984223393131,3.275094634441693 8.543318289272186,3.0598741298926675 8.543318289272186,3.0598741298926675 C23.706321252174977,7.828288531989039 23.481743334384692,8.923105881216689 23.453671094660905,9.390976543279788 H9.557912431386866 C9.529840191663078,8.923105881216689 9.305262273872792,7.828288531989039 7.957794767131068,6.462106198764788 zM25.016359105951654,19.899351613216993 c0,0 -3.6774634038159584,3.368668766854313 -8.515246049548402,4.585132488218371 h0 c-4.828425232491183,-1.2164637213640574 -8.515246049548402,-4.585132488218371 -8.515246049548402,-4.585132488218371 c1.0948173492276516,-0.6550189268883385 1.469113878878131,-1.5065435318431788 1.5907602510145369,-2.03055867335385 h13.839614183826468 C23.54724522707352,18.39280808137381 23.921541756724,19.244332686328654 25.016359105951654,19.899351613216993 zM2.2404152767199967,11.37474815042733 h28.53075297260778 v4.500915769047014 H2.2404152767199967 V11.37474815042733 z" id="svg_3" fill="#cccccc" fill-opacity="1"/>
</g><g id="svg_4" class="" fill="#cccccc" fill-opacity="1">
	<defs transform="translate(0.11428571492433548,0) translate(0,0.11428571492433548) translate(0.11428571492433548,-0.800000011920929) translate(0,1) scale(0.17613184452056885) translate(0,-1) translate(0.6488645672798157,1.1355129480361938) scale(1.0689884424209595) translate(-0.6488645672798157,-1.1355129480361938) translate(1.21397864818573,1.6692205667495728) scale(0.4920033812522888) translate(-1.21397864818573,-1.6692205667495728) translate(2.467419385910034,3.3927013874053955) scale(1.0101289749145508) translate(-2.467419385910034,-3.3927013874053955) ">
		<rect id="SVGID_3_" width="348" height="283" fill="#cccccc" fill-opacity="1"/>
	</defs>
	<clipPath id="SVGID_4_" transform="translate(0.11428571492433548,0) translate(0,0.11428571492433548) translate(0.11428571492433548,-0.800000011920929) translate(0,1) scale(0.17613184452056885) translate(0,-1) translate(0.6488645672798157,1.1355129480361938) scale(1.0689884424209595) translate(-0.6488645672798157,-1.1355129480361938) translate(1.21397864818573,1.6692205667495728) scale(0.4920033812522888) translate(-1.21397864818573,-1.6692205667495728) translate(2.467419385910034,3.3927013874053955) scale(1.0101289749145508) translate(-2.467419385910034,-3.3927013874053955) ">
		<use xlink:href="#SVGID_3_" style="overflow:visible;" id="svg_5"/>
	</clipPath>
	<path class="st1" d="M28.516031658183635,19.721560761633015 c0,-0.30879463696164555 0.25265015751407366,-0.5427299679931947 0.5520873812344569,-0.5427299679931947 c0.29943722372038356,0 0.5520873812344569,0.23393533103154965 0.5520873812344569,0.5427299679931947 c0,0.3181520502029075 -0.25265015751407366,0.5427299679931947 -0.5520873812344569,0.5427299679931947 C28.768681815697708,20.27364814286747 28.516031658183635,20.039712811835923 28.516031658183635,19.721560761633015 M29.068119039418093,20.18007401045485 c0.24329274427281164,0 0.4397984223393135,-0.19650567806650185 0.4397984223393135,-0.4585132488218372 c0,-0.2620075707553354 -0.19650567806650185,-0.4491558355805751 -0.4397984223393135,-0.4491558355805751 c-0.25265015751407366,0 -0.4491558355805751,0.19650567806650185 -0.4491558355805751,0.4491558355805751 C28.618963203837513,19.98356833238835 28.81546888190402,20.18007401045485 29.068119039418093,20.18007401045485 zM28.946472667281686,20.039712811835923 h-0.09357413241261991 v-0.626946687164553 h0.24329274427281164 c0.1497186118601918,0 0.22457791779028782,0.056144479447571914 0.22457791779028782,0.1777908515839777 c0,0.11228895889514393 -0.07485930593009586,0.1590760251014539 -0.1590760251014539,0.1777908515839777 l0.1777908515839777,0.2807223972378598 h-0.10293154565388181 l-0.16843343834271585,-0.27136498399659714 h-0.11228895889514393 V20.039712811835923 zM29.068119039418093,19.684131108667966 c0.08421671917135798,0 0.1497186118601918,-0.009357413241261986 0.1497186118601918,-0.10293154565388181 c0,-0.07485930593009586 -0.07485930593009586,-0.09357413241261991 -0.14036119861892984,-0.09357413241261991 h-0.13100378537766774 v0.19650567806650185 H29.068119039418093 z" id="svg_6" fill="#cccccc" fill-opacity="1"/>
</g></g></g></svg>